<svg width="320" height="82" viewBox="0 0 320 82" fill="none" xmlns="http://www.w3.org/2000/svg">
  <rect width="320" height="82" rx="18" fill="#F7F0E8"/>
  <path d="M18 18H34V50H80V64H18V18Z" fill="#4A235D"/>
  <path d="M111 17C130.33 17 145 31.26 145 41C145 50.74 130.33 65 111 65C91.67 65 77 50.74 77 41C77 31.26 91.67 17 111 17Z" fill="#4A235D"/>
  <path d="M118 17C137.33 17 152 31.26 152 41C152 50.74 137.33 65 118 65C98.67 65 84 50.74 84 41C84 31.26 98.67 17 118 17Z" stroke="#F7F0E8" stroke-width="6"/>
  <path d="M177 18H223C242 18 253 29.52 253 41C253 52.48 242 64 223 64H177V18ZM193 31V51H220C230.67 51 236 45.93 236 41C236 36.07 230.67 31 220 31H193Z" fill="#4A235D"/>
  <path d="M269 18H304V31H285V36H302V48H285V51H304V64H269V18Z" fill="#4A235D"/>
</svg>
